<svg id="svg" version="1.1" xmlns="http://www.w3.org/2000/svg" xmlns:xlink="http://www.w3.org/1999/xlink" width="400" height="306.2429906542056" viewBox="0, 0, 400,306.2429906542056"><g id="svgg"><path id="path0" d="M140.833 104.728 C 139.506 105.019,137.879 105.947,136.884 106.981 C 136.055 107.843,133.833 111.899,133.833 112.551 C 133.833 112.683,133.636 113.232,133.394 113.771 C 133.152 114.309,132.748 115.313,132.495 116.000 C 132.243 116.688,131.793 117.850,131.496 118.583 C 131.199 119.317,130.840 120.217,130.699 120.583 C 130.557 120.950,130.269 121.642,130.058 122.121 C 129.848 122.599,129.624 123.199,129.562 123.454 C 129.500 123.708,129.282 124.292,129.077 124.750 C 128.871 125.208,128.555 125.958,128.373 126.417 C 127.754 127.978,127.130 129.581,126.590 131.000 C 125.861 132.916,125.262 134.415,124.393 136.500 C 123.992 137.462,123.664 138.333,123.665 138.435 C 123.666 138.537,123.431 139.137,123.143 139.769 C 122.855 140.400,122.412 141.479,122.159 142.167 C 121.484 143.999,120.650 146.177,120.403 146.754 C 120.284 147.032,119.954 147.857,119.670 148.588 C 119.386 149.319,118.863 150.629,118.509 151.500 C 118.154 152.371,117.827 153.233,117.781 153.417 C 117.734 153.600,117.413 154.425,117.065 155.250 C 115.048 160.045,117.386 164.320,122.034 164.331 C 124.889 164.339,126.571 162.688,128.060 158.417 C 128.187 158.050,128.575 157.000,128.921 156.083 C 130.537 151.801,130.821 151.039,131.035 150.417 L 131.264 149.750 142.846 149.707 L 154.429 149.664 155.048 151.126 C 155.388 151.930,155.667 152.685,155.667 152.804 C 155.667 152.924,156.004 153.811,156.417 154.777 C 156.829 155.743,157.167 156.618,157.167 156.722 C 157.167 156.920,158.148 159.143,159.054 161.000 C 161.436 165.877,168.422 165.223,169.837 159.990 C 170.208 158.620,169.254 154.739,167.819 151.777 C 167.552 151.225,167.333 150.703,167.333 150.616 C 167.333 150.470,167.068 149.810,165.079 145.000 C 164.681 144.037,164.304 143.071,164.242 142.851 C 164.180 142.632,163.838 141.828,163.481 141.063 C 163.125 140.299,162.833 139.589,162.833 139.484 C 162.833 139.380,162.533 138.619,162.167 137.793 C 161.800 136.967,161.499 136.207,161.497 136.104 C 161.496 136.001,161.170 135.199,160.773 134.321 C 160.376 133.444,159.998 132.515,159.933 132.257 C 159.869 131.999,159.520 131.153,159.158 130.378 C 158.796 129.602,158.500 128.874,158.500 128.760 C 158.500 128.647,158.164 127.811,157.753 126.902 C 157.342 125.993,157.004 125.153,157.003 125.035 C 157.001 124.917,156.743 124.242,156.428 123.535 C 155.721 121.947,154.748 119.578,154.258 118.250 C 154.055 117.700,153.614 116.628,153.278 115.867 C 152.942 115.106,152.667 114.384,152.667 114.263 C 152.667 113.849,150.947 110.044,149.965 108.284 C 148.420 105.517,144.394 103.950,140.833 104.728 M195.417 104.685 C 192.559 104.997,188.749 105.953,186.976 106.803 C 186.367 107.095,185.800 107.333,185.716 107.333 C 184.586 107.333,179.007 112.685,178.999 113.777 C 178.998 113.854,178.879 114.142,178.734 114.417 C 176.962 117.774,176.943 123.571,178.693 127.306 C 179.415 128.847,179.830 129.414,181.435 131.047 C 182.754 132.389,183.582 133.043,184.779 133.686 C 185.313 133.973,185.900 134.300,186.083 134.412 C 187.276 135.145,194.175 137.475,196.250 137.846 C 196.800 137.944,198.150 138.276,199.250 138.583 C 200.350 138.890,201.755 139.258,202.372 139.401 C 202.989 139.544,203.993 139.887,204.603 140.163 C 205.213 140.440,205.803 140.667,205.914 140.667 C 206.261 140.667,208.539 142.455,209.109 143.175 C 210.973 145.530,210.855 149.247,208.841 151.611 C 208.180 152.388,206.450 153.833,206.182 153.833 C 206.086 153.833,205.762 153.985,205.462 154.169 C 203.644 155.289,197.674 155.875,195.167 155.180 C 192.018 154.307,189.665 152.229,188.100 148.938 C 187.789 148.284,187.180 147.006,186.747 146.096 C 185.297 143.053,184.127 142.167,181.559 142.167 C 172.744 142.167,175.524 155.705,185.498 161.345 C 193.527 165.885,207.691 165.253,215.167 160.020 C 224.490 153.494,224.800 139.211,215.750 133.144 C 213.765 131.813,207.657 129.167,206.570 129.167 C 206.438 129.167,205.486 128.911,204.454 128.598 C 203.423 128.286,201.980 127.907,201.248 127.757 C 200.516 127.607,199.054 127.232,198.000 126.923 C 196.946 126.614,195.821 126.309,195.500 126.246 C 192.848 125.721,189.519 123.369,188.824 121.529 C 187.139 117.066,191.560 113.250,198.417 113.250 C 203.649 113.250,206.081 114.649,208.481 119.038 C 208.869 119.746,209.256 120.369,209.343 120.423 C 209.429 120.476,209.501 120.646,209.503 120.802 C 209.519 122.109,212.209 124.191,214.020 124.299 C 219.784 124.639,221.660 117.432,217.250 111.888 C 216.659 111.145,214.473 109.000,214.306 109.000 C 214.242 109.000,214.091 108.903,213.970 108.784 C 213.138 107.967,210.017 106.383,208.305 105.909 C 205.765 105.205,204.926 105.006,203.807 104.840 C 202.065 104.582,197.187 104.492,195.417 104.685 M14.426 105.943 C 10.089 106.990,9.859 113.323,14.097 115.016 C 15.073 115.405,15.163 115.410,22.375 115.466 L 29.667 115.522 29.667 137.112 C 29.667 159.508,29.683 160.085,30.325 160.917 C 30.396 161.008,30.501 161.281,30.559 161.522 C 30.616 161.763,31.111 162.376,31.658 162.882 C 34.384 165.406,39.591 164.470,40.779 161.243 C 41.522 159.223,41.496 160.104,41.498 137.219 L 41.500 115.522 48.792 115.463 C 57.123 115.396,57.489 115.340,58.920 113.917 C 60.515 112.329,60.581 108.562,59.037 107.252 C 58.787 107.041,58.401 106.708,58.178 106.513 C 57.954 106.317,57.617 106.123,57.428 106.080 C 57.238 106.038,56.746 105.929,56.333 105.839 C 55.024 105.552,15.638 105.650,14.426 105.943 M229.606 105.940 C 225.271 106.987,225.036 113.327,229.270 115.018 C 230.238 115.405,230.342 115.410,237.542 115.466 L 244.833 115.522 244.833 137.112 C 244.833 160.485,244.797 159.501,245.726 161.417 C 247.794 165.682,254.626 165.193,256.205 160.667 L 256.583 159.583 256.627 137.553 L 256.671 115.522 263.961 115.463 C 271.235 115.405,271.252 115.404,272.333 114.994 C 276.711 113.334,276.302 106.871,271.756 105.895 C 270.210 105.562,230.993 105.605,229.606 105.940 M286.369 105.914 C 284.504 106.285,282.975 107.701,282.408 109.584 C 282.050 110.775,282.045 158.210,282.403 159.400 C 282.820 160.784,283.751 161.933,284.902 162.485 C 286.748 163.369,286.437 163.357,305.417 163.302 L 323.083 163.250 324.116 162.773 C 325.374 162.192,325.674 161.888,326.358 160.500 C 327.151 158.890,326.341 155.879,324.839 154.853 C 323.293 153.799,323.858 153.833,308.140 153.833 L 293.833 153.833 293.833 145.833 L 293.833 137.833 306.458 137.831 C 320.365 137.829,320.147 137.844,321.707 136.800 C 323.833 135.377,323.980 131.313,321.962 129.774 C 320.614 128.745,320.996 128.772,306.792 128.709 L 293.833 128.651 293.833 121.752 L 293.833 114.852 308.042 114.801 L 322.250 114.750 323.110 114.361 C 326.945 112.626,326.550 106.866,322.530 105.905 C 321.207 105.589,287.967 105.597,286.369 105.914 M144.412 121.917 C 144.671 122.650,145.065 123.775,145.285 124.417 C 145.506 125.058,145.940 126.221,146.250 127.000 C 146.560 127.779,146.995 128.942,147.217 129.583 C 148.341 132.834,149.047 134.763,149.420 135.607 C 149.647 136.121,149.833 136.645,149.833 136.773 C 149.833 136.900,150.165 137.828,150.569 138.835 L 151.306 140.667 142.906 140.667 L 134.507 140.667 134.896 139.542 C 135.111 138.923,135.421 138.042,135.586 137.583 C 135.752 137.125,136.167 135.962,136.509 135.000 C 136.851 134.037,137.482 132.275,137.911 131.083 C 139.516 126.630,140.144 124.876,140.659 123.417 C 140.950 122.592,141.478 121.129,141.833 120.167 C 142.187 119.204,142.526 118.193,142.585 117.919 C 142.700 117.388,143.176 118.430,144.412 121.917 M200.034 174.160 C 198.265 174.438,196.862 175.761,196.130 177.839 L 195.750 178.917 195.705 202.905 L 195.660 226.893 196.015 228.322 C 196.561 230.516,197.575 231.684,199.448 232.277 C 200.959 232.755,232.561 232.751,234.054 232.272 C 238.317 230.906,237.983 224.507,233.583 223.250 C 232.472 222.932,231.834 222.914,220.042 222.867 L 207.667 222.817 207.663 201.700 C 207.661 188.393,207.598 180.153,207.492 179.419 C 206.917 175.442,204.176 173.509,200.034 174.160 M249.276 174.165 C 247.258 174.528,245.656 176.398,245.166 178.962 C 245.038 179.634,244.999 187.171,245.034 204.417 L 245.083 228.917 245.562 230.129 C 246.543 232.609,248.076 233.583,251.000 233.583 C 253.987 233.583,255.526 232.496,256.426 229.749 L 256.917 228.250 256.917 203.833 L 256.917 179.417 256.425 177.917 C 255.434 174.891,252.831 173.525,249.276 174.165 M274.974 174.159 C 273.116 174.499,270.962 176.402,270.313 178.275 L 269.917 179.417 269.865 203.833 C 269.811 229.313,269.807 229.132,270.517 230.789 C 272.190 234.693,278.370 234.683,280.235 230.774 C 280.940 229.297,281.000 227.675,281.000 210.220 L 281.000 193.953 281.582 194.685 C 281.902 195.087,282.164 195.478,282.165 195.553 C 282.167 195.710,283.126 197.139,283.450 197.470 C 283.569 197.591,283.667 197.753,283.667 197.829 C 283.667 197.974,285.985 201.521,286.175 201.667 C 286.235 201.713,286.380 201.938,286.498 202.167 C 286.616 202.396,287.328 203.521,288.080 204.667 C 288.833 205.813,289.907 207.463,290.468 208.333 C 291.028 209.204,291.643 210.142,291.835 210.417 C 292.026 210.692,292.587 211.554,293.082 212.333 C 293.576 213.112,294.285 214.173,294.657 214.691 C 295.029 215.209,295.333 215.677,295.333 215.732 C 295.333 215.787,296.290 217.276,297.458 219.041 C 298.627 220.806,299.611 222.313,299.644 222.390 C 299.677 222.467,300.333 223.469,301.102 224.616 C 301.871 225.764,302.500 226.746,302.500 226.799 C 302.500 226.852,302.837 227.326,303.250 227.851 C 303.662 228.376,304.000 228.859,304.000 228.924 C 304.000 229.277,306.455 231.887,307.347 232.483 C 310.687 234.713,315.648 233.935,317.181 230.940 C 318.315 228.724,318.237 230.553,318.298 204.583 C 318.362 176.833,318.405 177.588,316.669 175.611 C 315.264 174.012,311.668 173.431,310.060 174.543 C 307.073 176.609,307.168 175.865,307.160 197.180 C 307.153 213.521,307.138 214.391,306.868 213.917 C 306.475 213.226,304.759 210.674,304.346 210.167 C 304.160 209.938,304.006 209.710,304.004 209.660 C 303.999 209.558,299.768 203.083,299.056 202.090 C 298.796 201.728,298.468 201.240,298.327 201.007 C 297.535 199.698,294.094 194.575,293.975 194.528 C 293.897 194.497,293.833 194.372,293.833 194.249 C 293.833 194.126,293.564 193.672,293.234 193.241 C 292.905 192.809,292.511 192.243,292.359 191.983 C 292.208 191.723,291.814 191.114,291.484 190.630 C 290.058 188.535,288.223 185.734,287.899 185.160 C 287.705 184.817,287.398 184.377,287.217 184.182 C 287.035 183.987,286.782 183.623,286.654 183.372 C 286.526 183.122,286.151 182.542,285.820 182.083 C 285.489 181.625,285.084 180.987,284.919 180.667 C 284.755 180.346,284.564 180.046,284.495 180.000 C 284.426 179.954,284.093 179.443,283.755 178.865 C 283.416 178.287,282.933 177.574,282.681 177.282 C 282.429 176.989,282.178 176.627,282.123 176.476 C 282.069 176.325,281.737 175.988,281.387 175.726 C 281.037 175.464,280.648 175.154,280.524 175.036 C 279.673 174.230,276.942 173.798,274.974 174.159 M335.667 174.146 C 333.524 174.492,331.884 176.372,331.506 178.917 C 331.169 181.179,331.334 228.640,331.682 229.783 C 332.833 233.554,337.708 234.976,340.940 232.482 C 341.431 232.103,341.833 231.725,341.833 231.643 C 341.833 231.560,342.016 231.213,342.238 230.871 C 343.163 229.454,343.207 228.979,343.288 219.651 L 343.363 211.052 344.332 211.568 C 344.864 211.851,346.076 212.523,347.025 213.061 C 347.974 213.599,349.223 214.294,349.800 214.606 C 350.378 214.918,351.128 215.343,351.467 215.550 C 352.477 216.167,352.690 216.287,354.083 217.015 C 354.817 217.398,355.604 217.840,355.833 217.997 C 356.063 218.153,356.925 218.642,357.750 219.083 C 358.575 219.525,359.550 220.074,359.917 220.305 C 360.283 220.535,360.603 220.709,360.628 220.690 C 360.652 220.672,361.311 221.034,362.091 221.495 C 362.872 221.956,363.583 222.333,363.672 222.333 C 363.761 222.333,363.833 222.403,363.833 222.489 C 363.833 222.575,364.085 222.736,364.394 222.848 L 364.954 223.050 365.050 224.483 C 365.420 230.022,371.057 233.748,376.809 232.256 C 384.026 230.385,385.792 220.540,379.750 215.863 C 376.799 213.579,371.241 213.548,368.623 215.802 C 368.286 216.092,368.361 216.122,365.917 214.735 C 365.092 214.267,363.630 213.441,362.668 212.900 C 361.706 212.359,360.694 211.788,360.418 211.632 C 360.142 211.475,359.504 211.137,359.000 210.882 C 358.496 210.626,358.046 210.379,358.000 210.333 C 357.894 210.227,357.608 210.063,354.603 208.385 C 353.239 207.623,352.057 207.000,351.978 207.000 C 351.898 207.000,351.833 206.941,351.833 206.869 C 351.833 206.797,351.383 206.525,350.833 206.264 C 350.283 206.002,349.833 205.731,349.833 205.661 C 349.833 205.552,354.973 202.410,356.917 201.332 C 357.283 201.128,359.046 200.080,360.833 199.003 C 362.621 197.925,364.346 196.911,364.667 196.749 C 364.988 196.586,365.288 196.396,365.334 196.325 C 365.415 196.202,367.023 195.271,368.107 194.721 C 368.610 194.466,368.653 194.472,369.190 194.874 C 371.215 196.386,375.885 196.656,378.333 195.402 C 383.867 192.567,385.178 184.990,380.898 180.583 C 375.250 174.770,365.007 178.524,364.999 186.410 C 364.998 187.459,364.958 187.603,364.624 187.767 C 364.418 187.868,363.181 188.599,361.874 189.392 C 360.567 190.185,359.463 190.833,359.421 190.833 C 359.378 190.833,358.835 191.159,358.214 191.558 C 357.592 191.956,356.596 192.559,356.000 192.898 C 355.404 193.237,354.804 193.585,354.667 193.673 C 354.168 193.991,349.206 196.950,348.981 197.063 C 348.854 197.127,348.600 197.272,348.417 197.384 C 348.233 197.496,347.708 197.808,347.250 198.077 C 346.792 198.347,346.379 198.609,346.333 198.659 C 346.287 198.709,346.025 198.862,345.750 198.999 C 345.475 199.135,344.860 199.491,344.383 199.790 C 343.906 200.089,343.481 200.333,343.438 200.333 C 343.395 200.333,343.329 195.627,343.292 189.875 C 343.219 178.546,343.185 178.121,342.233 176.717 C 342.059 176.460,341.879 176.165,341.833 176.061 C 341.227 174.685,338.182 173.740,335.667 174.146 " stroke="none" fill="#ffffff" fill-rule="evenodd"></path><path id="path1" d="M80.379 109.833 C 80.379 110.246,80.411 110.415,80.451 110.208 C 80.491 110.002,80.491 109.665,80.451 109.458 C 80.411 109.252,80.379 109.421,80.379 109.833 M83.333 117.083 C 83.644 117.404,83.936 117.667,83.982 117.667 C 84.028 117.667,83.811 117.404,83.500 117.083 C 83.189 116.763,82.897 116.500,82.851 116.500 C 82.805 116.500,83.022 116.763,83.333 117.083 M75.417 120.167 C 75.775 120.533,76.105 120.833,76.151 120.833 C 76.197 120.833,75.941 120.533,75.583 120.167 C 75.225 119.800,74.895 119.500,74.849 119.500 C 74.803 119.500,75.059 119.800,75.417 120.167 M90.292 120.118 C 90.498 120.157,90.835 120.157,91.042 120.118 C 91.248 120.078,91.079 120.045,90.667 120.045 C 90.254 120.045,90.085 120.078,90.292 120.118 M86.045 132.833 C 86.045 133.246,86.078 133.415,86.118 133.208 C 86.157 133.002,86.157 132.665,86.118 132.458 C 86.078 132.252,86.045 132.421,86.045 132.833 M89.160 140.375 C 89.568 140.810,89.925 141.167,89.951 141.167 C 90.077 141.167,89.944 141.017,89.208 140.326 L 88.417 139.583 89.160 140.375 M89.667 144.583 C 89.978 144.904,90.270 145.167,90.315 145.167 C 90.361 145.167,90.144 144.904,89.833 144.583 C 89.522 144.262,89.230 144.000,89.185 144.000 C 89.139 144.000,89.356 144.262,89.667 144.583 M68.409 154.875 L 67.750 155.583 68.458 154.925 C 69.117 154.312,69.243 154.167,69.117 154.167 C 69.090 154.167,68.771 154.485,68.409 154.875 M54.514 158.349 C 51.097 159.715,53.475 164.447,58.921 167.118 C 64.894 170.048,71.501 171.216,82.083 171.213 C 90.796 171.210,95.220 170.617,101.110 168.662 C 108.314 166.270,112.169 162.371,110.042 159.630 C 108.814 158.048,107.509 158.311,105.249 160.595 C 98.837 167.075,72.878 168.163,61.167 162.442 C 59.697 161.724,58.493 160.686,57.333 159.138 C 56.603 158.162,55.649 157.895,54.514 158.349 M82.292 162.118 C 82.498 162.157,82.835 162.157,83.042 162.118 C 83.248 162.078,83.079 162.045,82.667 162.045 C 82.254 162.045,82.085 162.078,82.292 162.118 " stroke="none" fill="#f48f0a" fill-rule="evenodd"></path><path id="path2" d="M81.000 102.306 C 80.163 102.540,79.024 103.200,78.559 103.719 C 77.946 104.406,77.167 105.553,77.167 105.770 C 77.167 105.863,76.950 106.362,76.686 106.879 C 76.422 107.395,76.074 108.215,75.914 108.701 C 75.754 109.186,75.437 110.108,75.210 110.750 C 74.048 114.034,72.675 118.062,72.710 118.084 C 79.033 121.948,80.266 128.750,75.507 133.506 C 72.993 136.017,70.829 136.625,66.167 136.128 C 65.807 136.089,65.727 136.175,65.580 136.750 C 65.487 137.117,65.324 137.570,65.217 137.758 C 64.722 138.634,63.872 141.191,64.056 141.252 C 64.163 141.288,64.587 141.401,65.000 141.505 C 70.624 142.915,72.727 150.227,68.768 154.607 C 66.221 157.426,61.521 157.967,58.449 155.794 C 58.191 155.613,57.961 155.491,57.936 155.523 C 57.912 155.556,57.648 156.238,57.351 157.039 L 56.810 158.495 57.363 159.201 C 58.592 160.767,59.738 161.744,61.167 162.442 C 72.970 168.208,98.670 167.085,105.368 160.511 C 106.075 159.817,106.850 159.099,107.091 158.914 C 107.735 158.421,106.815 154.671,105.843 153.833 C 105.790 153.787,105.566 153.356,105.345 152.875 C 105.124 152.394,104.881 152.000,104.805 152.000 C 104.729 152.000,104.667 151.825,104.667 151.611 C 104.667 151.397,104.376 150.666,104.020 149.986 C 103.665 149.306,103.320 148.563,103.254 148.333 C 103.188 148.104,102.951 147.523,102.728 147.041 C 102.505 146.559,102.122 145.451,101.877 144.578 C 101.521 143.314,101.378 143.012,101.174 143.092 C 98.731 144.056,94.834 143.764,92.077 142.410 C 84.121 138.503,84.137 127.278,92.105 122.669 L 93.109 122.088 92.976 121.375 C 92.731 120.063,92.600 119.946,91.518 120.068 C 82.664 121.070,76.958 109.964,82.875 103.243 C 83.241 102.826,83.493 102.437,83.434 102.378 C 83.278 102.222,81.489 102.169,81.000 102.306 M85.065 141.995 C 94.429 144.390,95.668 157.216,86.917 161.163 C 79.176 164.655,70.734 157.626,72.829 149.433 C 74.217 144.007,79.759 140.638,85.065 141.995 " stroke="none" fill="#ffcb4c" fill-rule="evenodd"></path><path id="path3" d="M82.746 103.541 C 77.453 110.582,82.361 120.367,90.990 119.975 C 92.618 119.901,92.576 119.950,92.105 118.655 C 91.891 118.066,91.509 116.908,91.257 116.083 C 91.005 115.258,90.705 114.433,90.590 114.250 C 90.475 114.067,90.257 113.490,90.105 112.969 C 89.954 112.448,89.650 111.660,89.430 111.219 C 89.209 110.778,88.905 109.986,88.753 109.461 C 87.942 106.647,84.964 102.500,83.756 102.500 C 83.631 102.500,83.176 102.968,82.746 103.541 M72.262 119.039 C 72.026 119.512,71.833 120.025,71.833 120.179 C 71.833 120.333,71.721 120.553,71.583 120.667 C 71.446 120.781,71.333 120.982,71.333 121.114 C 71.333 121.246,71.135 121.772,70.893 122.284 C 70.380 123.369,67.211 132.103,66.975 133.083 C 66.887 133.450,66.720 133.900,66.604 134.083 C 66.488 134.267,66.270 134.729,66.120 135.111 L 65.847 135.806 66.382 135.999 C 67.360 136.352,69.353 136.400,70.691 136.102 C 79.080 134.236,80.977 123.295,73.692 118.798 L 72.690 118.180 72.262 119.039 M92.124 122.733 C 80.753 129.580,87.336 146.475,100.125 143.267 C 101.516 142.918,101.488 142.984,100.833 141.583 C 100.558 140.995,100.333 140.433,100.333 140.335 C 100.333 140.236,100.159 139.802,99.947 139.369 C 99.734 138.937,99.460 138.265,99.337 137.875 C 99.214 137.485,99.050 137.167,98.973 137.167 C 98.896 137.167,98.833 137.013,98.833 136.825 C 98.833 136.638,98.677 136.169,98.486 135.784 C 98.159 135.125,96.549 130.877,96.074 129.417 C 95.705 128.286,94.004 123.956,93.853 123.764 C 93.774 123.665,93.620 123.303,93.510 122.961 C 93.235 122.109,93.176 122.099,92.124 122.733 M63.530 141.784 C 63.410 142.040,63.097 142.775,62.835 143.417 C 62.573 144.058,62.091 145.129,61.763 145.796 C 61.435 146.463,61.167 147.072,61.167 147.149 C 61.167 147.226,60.909 147.805,60.594 148.436 C 59.967 149.692,58.268 154.138,58.130 154.883 C 58.020 155.476,58.644 155.987,60.176 156.558 C 67.394 159.248,73.745 151.024,69.359 144.667 C 67.866 142.503,64.075 140.628,63.530 141.784 M81.184 141.855 C 73.904 142.934,70.223 151.406,74.352 157.579 C 78.711 164.096,88.896 163.158,91.984 155.955 C 95.089 148.710,88.956 140.702,81.184 141.855 " stroke="none" fill="#bf1a30" fill-rule="evenodd"></path></g></svg>